<?xml version="1.0" encoding="utf-8"?>
<!-- Generator: Adobe Illustrator 13.0.0, SVG Export Plug-In . SVG Version: 6.00 Build 14948)  -->
<!DOCTYPE svg PUBLIC "-//W3C//DTD SVG 1.1//EN" "http://www.w3.org/Graphics/SVG/1.1/DTD/svg11.dtd">
<svg version="1.1" id="Calque_1" xmlns="http://www.w3.org/2000/svg" xmlns:xlink="http://www.w3.org/1999/xlink" x="0px" y="0px"
	 width="1180.627px" height="266.567px" viewBox="0 0 1180.627 266.567" enable-background="new 0 0 1180.627 266.567"
	 xml:space="preserve">
<path fill="#E1001A" d="M105.261,163.884c0,0,8.424-31.96,101.179-77.382c0,0-5.167-38.9,38.891-38.9
	c0,0,25.021-0.538,34.818,17.414c0,0,2.31,4.481,5.706,5.297c0,0-4.49,7.079-11.281,7.079c0,0,8.016,1.633,13.192,8.294
	c0,0-8.711,1.225-15.224,37.731c0,0-6.262,64.125-89.758,77.317l-8.433-26.376c0,0,3.535-5.307,19.297-10.474"/>
<path fill="#E1001A" d="M79.423,261.12H0l32.369-91.391h25.698c0,0-5.158,2.31-9.509,19.445h53.836"/>
<path fill="#E1001A" d="M49.226,121.301L90.844,0H217.86l12.784,37.814c0,0-44.605-3.535-48.688,43.251l-8.832,4.62l-18.638-60.108
	l-27.804,87.114c0,0-5.576,3.312-10.335,8.609"/>
<path fill="#FFFFFF" d="M246.694,88.432c7.227,0,13.072-5.863,13.072-13.081s-5.845-13.081-13.072-13.081
	s-13.081,5.863-13.081,13.081S239.467,88.432,246.694,88.432"/>
<path fill="#E1001A" d="M307.08,261.12h-64.747l-21.217-66.648c0,0,27.201-7.338,47.611-41.878"/>
<path fill="#00915B" d="M25.086,145.524c-20.262-1.095-20.809-18.499-20.809-18.499h114.789c0,0,9.648-14,68.402-42.843
	c0,0-1.494-41.34,47.064-42.008c0,0,25.142,0.816,33.315,11.003l-0.334-0.278c-10.521-5.539-22.182-5.297-22.182-5.297
	c-44.058,0-38.891,38.9-38.891,38.9c-92.755,45.422-101.179,77.382-101.179,77.382h88.385
	c-15.762,5.167-19.297,10.474-19.297,10.474l27.6,86.762h-0.473h-20.401l-25.021-77.651H56.777c0,0,3.535-12.106,13.601-19.445
	H4.277C4.277,164.023,4.824,146.61,25.086,145.524"/>
<path fill="#00915B" d="M259.07,71.111c0.455,1.336,0.696,2.755,0.696,4.23c0,7.227-5.845,13.09-13.072,13.09
	s-13.081-5.863-13.081-13.09c0-7.208,5.854-13.072,13.081-13.072c1.763,0,3.47,0.353,5.019,1.002l-6.244,14.324"/>
<path fill="#00915B" d="M287.765,85.686c-5.177-6.67-13.192-8.294-13.192-8.294c6.791,0,11.281-7.079,11.281-7.079
	s2.588,1.642,5.724,1.364c0,0,3.59-0.417,8.229-0.417c0,0,11.346-0.26,19.232,5.316c0,0,1.095,0.751,0,1.429
	c0,0-6.04,3.804-20.401,4.963c0,0-5.919,0.204-10.465,2.449"/>
<path fill="#00915B" d="M195.121,198.303c7.088-1.717,13.591-3.785,19.445-6.188l21.765,69.145h-20.809"/>
<path fill="#E1001A" d="M415.17,178.625c0,0,2.69,40.737-30.569,40.431c0,0-20.058-0.891-20.058-24.854v-91.289h-58.113v107.459
	c0,0-1.791,56.008,60.507,56.008c0,0,34.447,1.493,48.233-23.063l4.787,20.363h53.001V103.136H415.17"/>
<path fill="#E1001A" d="M578.656,145.079c0,0,25.169-3.6,44.03,5.993l4.797-41.042c0,0-54.523-25.754-103.043,7.19
	c0,0-33.25,19.482-32.944,66.193c0,0-2.7,43.14,32.944,66.194c0,0,49.43,33.407,103.043,6.447l-4.797-40.588
	c0,0-23.072,8.989-44.03,4.49c0,0-29.65-5.391-29.65-36.544C549.005,183.413,546.306,150.775,578.656,145.079"/>
<path fill="#E1001A" d="M782.59,107.33c-42.536-20.364-75.489,14.983-75.489,14.983V57.918H647.8V263.68h58.113c0,0,0-60.655,0-81
	c0-33.408,27.851-32.508,27.851-32.508c22.905,0,22.47,20.66,22.47,20.66v92.848h58.697V156.759
	C814.931,120.81,782.59,107.33,782.59,107.33"/>
<path fill="#E1001A" d="M1120.359,100.381c0,0-39.233-0.297-53.02,24.251v-21.57h-53.021v160.554h57.808v-75.48
	c0,0-0.816-40.375,30.55-40.44c0,0,20.086,0.9,20.086,24.863v91.122h57.798V156.982
	C1180.561,156.982,1185.051,100.381,1120.359,100.381"/>
<path fill="#E1001A" d="M957.273,111.226c-53.92-25.151-103.638,2.412-103.638,2.412v38.334
	c32.351-13.184,48.215-12.58,48.215-12.58c37.155,0,33.556,23.963,33.556,23.963c-103.637-11.086-103.934,49.708-103.934,49.708
	c0,56.629,56.619,53.317,56.619,53.317c29.947,0,49.718-21.561,49.718-21.561v18.86h50.32V156.462
	C988.13,124.697,957.273,111.226,957.273,111.226 M906.063,229.995c0,0-20.076-0.742-20.373-16.625c0,0-1.503-15.726,21.857-18.425
	c0,0,13.192-2.245,26.96-0.148C934.507,194.796,928.819,229.995,906.063,229.995z"/>
</svg>
